<!DOCTYPE svg PUBLIC "-//W3C//DTD SVG 1.1//EN" "http://www.w3.org/Graphics/SVG/1.1/DTD/svg11.dtd">
<!-- Uploaded to: SVG Repo, www.svgrepo.com, Transformed by: SVG Repo Mixer Tools -->
<svg fill="#0f1b61" width="256px" height="256px" viewBox="-3.2 -3.2 38.40 38.40" version="1.1" xmlns="http://www.w3.org/2000/svg" transform="matrix(-1, 0, 0, 1, 0, 0)rotate(0)" stroke="#0f1b61">
<g id="SVGRepo_bgCarrier" stroke-width="0"/>
<g id="SVGRepo_tracerCarrier" stroke-linecap="round" stroke-linejoin="round" stroke="#CCCCCC" stroke-width="0.384"/>
<g id="SVGRepo_iconCarrier"> <title>pacman</title> <path d="M17.362 16.438l8.339 8.483c-2.125 1.908-4.925 3.079-8.006 3.079-6.627 0-12-5.373-12-12s5.373-12 12-12c3.38 0 6.428 1.402 8.609 3.65l-8.942 8.788zM18.174 7.958c-0.828 0-1.499 0.672-1.499 1.5 0 0.829 0.671 1.5 1.499 1.5 0.829 0 1.501-0.671 1.501-1.5 0-0.828-0.672-1.5-1.501-1.5z"/> </g>
</svg>